<svg width="415" height="53" viewBox="0 0 415 53" fill="none" xmlns="http://www.w3.org/2000/svg">
<g filter="url(#filter0_d_37_482)">
<mask id="path-1-outside-1_37_482" maskUnits="userSpaceOnUse" x="3.01294" y="0" width="408" height="45" fill="black">
<rect fill="white" x="3.01294" width="408" height="45"/>
<path d="M406.82 35.848C405.348 35.848 404.148 35.464 403.22 34.696C402.292 33.928 401.828 32.712 401.828 31.048V1.768H405.86V30.712C405.86 31.224 405.988 31.624 406.244 31.912C406.532 32.168 406.932 32.296 407.444 32.296H409.652V35.848H406.82Z"/>
<path d="M385.603 36.424C382.979 36.424 380.883 35.816 379.315 34.6C377.779 33.384 377.011 31.688 377.011 29.512C377.011 27.336 377.651 25.624 378.931 24.376C380.211 23.128 382.243 22.248 385.027 21.736L394.051 20.056C394.051 17.912 393.539 16.312 392.515 15.256C391.523 14.2 390.019 13.672 388.003 13.672C386.243 13.672 384.851 14.072 383.827 14.872C382.803 15.64 382.099 16.76 381.715 18.232L377.443 17.896C377.923 15.496 379.075 13.56 380.899 12.088C382.755 10.584 385.123 9.832 388.003 9.832C391.267 9.832 393.763 10.76 395.491 12.616C397.219 14.44 398.083 16.968 398.083 20.2V30.712C398.083 31.288 398.179 31.704 398.371 31.96C398.595 32.184 398.947 32.296 399.427 32.296H400.435V35.848C400.307 35.88 400.099 35.896 399.811 35.896C399.523 35.928 399.219 35.944 398.899 35.944C397.747 35.944 396.803 35.768 396.067 35.416C395.363 35.032 394.851 34.456 394.531 33.688C394.211 32.888 394.051 31.848 394.051 30.568L394.531 30.664C394.307 31.752 393.763 32.744 392.899 33.64C392.035 34.504 390.963 35.192 389.683 35.704C388.403 36.184 387.043 36.424 385.603 36.424ZM385.987 32.872C387.683 32.872 389.123 32.552 390.307 31.912C391.523 31.24 392.451 30.344 393.091 29.224C393.731 28.072 394.051 26.792 394.051 25.384V23.56L385.795 25.096C384.067 25.416 382.867 25.912 382.195 26.584C381.555 27.224 381.235 28.072 381.235 29.128C381.235 30.312 381.651 31.24 382.483 31.912C383.347 32.552 384.515 32.872 385.987 32.872Z"/>
<path d="M362.767 43.624C360.943 43.624 359.295 43.32 357.823 42.712C356.351 42.104 355.119 41.24 354.127 40.12C353.135 39 352.463 37.704 352.111 36.232L356.335 35.944C356.719 37.128 357.391 38.056 358.351 38.728C359.343 39.432 360.815 39.784 362.767 39.784C365.071 39.784 366.831 39.32 368.047 38.392C369.295 37.464 369.919 36.072 369.919 34.216V30.088C369.311 31.432 368.335 32.504 366.991 33.304C365.647 34.104 364.143 34.504 362.479 34.504C360.335 34.504 358.415 33.976 356.719 32.92C355.055 31.864 353.743 30.408 352.783 28.552C351.855 26.696 351.391 24.568 351.391 22.168C351.391 19.736 351.855 17.608 352.783 15.784C353.711 13.928 354.991 12.472 356.623 11.416C358.287 10.36 360.175 9.832 362.287 9.832C364.079 9.832 365.679 10.248 367.087 11.08C368.527 11.912 369.535 13.032 370.111 14.44V10.408H373.951V34.12C373.951 36.104 373.503 37.8 372.607 39.208C371.711 40.648 370.431 41.736 368.767 42.472C367.103 43.24 365.103 43.624 362.767 43.624ZM362.671 30.664C364.847 30.664 366.591 29.912 367.903 28.408C369.215 26.872 369.887 24.792 369.919 22.168C369.951 20.408 369.663 18.904 369.055 17.656C368.479 16.376 367.631 15.4 366.511 14.728C365.423 14.024 364.143 13.672 362.671 13.672C360.431 13.672 358.687 14.44 357.439 15.976C356.223 17.48 355.615 19.544 355.615 22.168C355.615 24.792 356.239 26.872 357.487 28.408C358.767 29.912 360.495 30.664 362.671 30.664Z"/>
<path d="M339.498 36.424C337.098 36.424 335.018 35.88 333.258 34.792C331.53 33.704 330.186 32.168 329.226 30.184C328.298 28.168 327.834 25.816 327.834 23.128C327.834 20.44 328.298 18.104 329.226 16.12C330.186 14.136 331.514 12.6 333.21 11.512C334.938 10.392 336.97 9.832 339.306 9.832C341.514 9.832 343.466 10.36 345.162 11.416C346.858 12.44 348.17 13.944 349.098 15.928C350.058 17.912 350.538 20.328 350.538 23.176V24.376H332.058C332.218 27.096 332.938 29.144 334.218 30.52C335.53 31.896 337.29 32.584 339.498 32.584C341.162 32.584 342.522 32.2 343.578 31.432C344.666 30.632 345.418 29.592 345.834 28.312L350.154 28.648C349.482 30.92 348.202 32.792 346.314 34.264C344.458 35.704 342.186 36.424 339.498 36.424ZM332.058 20.824H346.122C345.93 18.36 345.21 16.552 343.962 15.4C342.746 14.248 341.194 13.672 339.306 13.672C337.354 13.672 335.738 14.28 334.458 15.496C333.21 16.68 332.41 18.456 332.058 20.824Z"/>
<path d="M307.049 35.848V1.768H311.177V33.928L309.113 31.816H328.217V35.848H307.049Z"/>
<path d="M272.343 35.848V10.408H276.039L276.183 16.888L275.703 16.456C276.023 14.952 276.583 13.72 277.383 12.76C278.183 11.768 279.143 11.032 280.263 10.552C281.415 10.072 282.647 9.832 283.959 9.832C285.911 9.832 287.511 10.264 288.759 11.128C290.039 11.992 290.983 13.16 291.591 14.632C292.231 16.072 292.551 17.688 292.551 19.48V35.848H288.519V20.632C288.519 19.064 288.327 17.752 287.943 16.696C287.591 15.608 287.015 14.792 286.215 14.248C285.415 13.672 284.375 13.384 283.095 13.384C281.143 13.384 279.527 14.008 278.247 15.256C276.999 16.472 276.375 18.264 276.375 20.632V35.848H272.343Z"/>
<path d="M242.154 35.848L234.282 10.408H238.698L244.65 31.624L250.698 10.408H255.018L261.066 31.624L267.066 10.408H271.482L263.61 35.848H258.522L252.858 16.504L247.194 35.848H242.154Z"/>
<path d="M223.585 36.424C221.249 36.424 219.201 35.88 217.441 34.792C215.681 33.704 214.321 32.168 213.361 30.184C212.401 28.168 211.921 25.816 211.921 23.128C211.921 20.408 212.401 18.056 213.361 16.072C214.321 14.088 215.681 12.552 217.441 11.464C219.201 10.376 221.249 9.832 223.585 9.832C225.921 9.832 227.953 10.376 229.681 11.464C231.441 12.552 232.801 14.088 233.761 16.072C234.721 18.056 235.201 20.408 235.201 23.128C235.201 25.816 234.721 28.168 233.761 30.184C232.801 32.168 231.441 33.704 229.681 34.792C227.953 35.88 225.921 36.424 223.585 36.424ZM223.585 32.584C225.921 32.584 227.729 31.752 229.009 30.088C230.321 28.392 230.977 26.072 230.977 23.128C230.977 20.184 230.321 17.88 229.009 16.216C227.729 14.52 225.921 13.672 223.585 13.672C221.249 13.672 219.425 14.52 218.113 16.216C216.801 17.88 216.145 20.184 216.145 23.128C216.145 26.072 216.801 28.392 218.113 30.088C219.425 31.752 221.249 32.584 223.585 32.584Z"/>
<path d="M200.264 35.848V10.408H203.816L204.008 16.84L203.624 16.696C203.944 14.52 204.632 12.936 205.688 11.944C206.776 10.92 208.216 10.408 210.008 10.408H212.504V14.248H210.056C208.776 14.248 207.704 14.488 206.84 14.968C206.008 15.416 205.368 16.104 204.92 17.032C204.504 17.928 204.296 19.08 204.296 20.488V35.848H200.264Z"/>
<path d="M171.564 35.848V1.768H183.276C187.308 1.768 190.332 2.504 192.348 3.976C194.364 5.448 195.372 7.768 195.372 10.936C195.372 12.408 195.052 13.704 194.412 14.824C193.772 15.944 192.86 16.824 191.676 17.464C190.492 18.072 189.084 18.376 187.452 18.376L187.404 18.088C190.316 18.088 192.604 18.872 194.268 20.44C195.964 21.976 196.812 23.992 196.812 26.488C196.812 29.592 195.804 31.928 193.788 33.496C191.772 35.064 188.908 35.848 185.196 35.848H171.564ZM175.692 31.816H185.196C187.532 31.816 189.324 31.336 190.572 30.376C191.852 29.416 192.492 28.04 192.492 26.248C192.492 24.456 191.852 23.064 190.572 22.072C189.324 21.048 187.532 20.536 185.196 20.536H175.692V31.816ZM175.692 16.504H183.276C185.772 16.504 187.692 16.04 189.036 15.112C190.38 14.152 191.052 12.824 191.052 11.128C191.052 9.336 190.396 8.008 189.084 7.144C187.804 6.248 185.868 5.8 183.276 5.8H175.692V16.504Z"/>
<path d="M143.622 36.616C140.358 36.616 137.782 35.832 135.894 34.264C134.006 32.664 133.062 30.408 133.062 27.496C133.062 26.024 133.27 24.728 133.686 23.608C134.102 22.456 134.79 21.352 135.75 20.296C136.742 19.24 138.086 18.12 139.782 16.936C139.046 15.976 138.422 15.08 137.91 14.248C137.398 13.384 136.998 12.52 136.71 11.656C136.454 10.792 136.326 9.864 136.326 8.872C136.326 6.408 137.062 4.488 138.534 3.112C140.038 1.704 142.086 1 144.678 1C146.374 1 147.814 1.304 148.998 1.912C150.182 2.488 151.078 3.32 151.686 4.408C152.326 5.496 152.646 6.792 152.646 8.296C152.646 10.12 152.102 11.768 151.014 13.24C149.926 14.68 148.102 16.248 145.542 17.944L153.318 27.88C154.47 26.28 155.046 23.848 155.046 20.584L159.078 20.968C159.046 22.888 158.726 24.744 158.118 26.536C157.542 28.328 156.79 29.784 155.862 30.904L159.942 35.848H155.094L153.318 33.688C152.39 34.584 151.11 35.304 149.478 35.848C147.878 36.36 145.926 36.616 143.622 36.616ZM144.102 32.776C145.734 32.776 147.094 32.584 148.182 32.2C149.27 31.816 150.086 31.336 150.63 30.76L142.182 20.104C140.454 21.288 139.222 22.44 138.486 23.56C137.75 24.68 137.382 25.992 137.382 27.496C137.382 29.096 137.91 30.376 138.966 31.336C140.054 32.296 141.766 32.776 144.102 32.776ZM143.334 15.016C144.55 14.248 145.526 13.544 146.262 12.904C146.998 12.232 147.526 11.544 147.846 10.84C148.166 10.136 148.326 9.384 148.326 8.584C148.326 7.432 148.006 6.552 147.366 5.944C146.726 5.336 145.83 5.032 144.678 5.032C143.398 5.032 142.406 5.368 141.702 6.04C140.998 6.712 140.646 7.656 140.646 8.872C140.646 9.512 140.726 10.152 140.886 10.792C141.046 11.4 141.318 12.04 141.702 12.712C142.118 13.384 142.662 14.152 143.334 15.016Z"/>
<path d="M112.834 36.424C110.562 36.424 108.626 36.056 107.026 35.32C105.458 34.584 104.226 33.576 103.33 32.296C102.466 30.984 101.97 29.496 101.842 27.832L106.066 27.544C106.322 29.08 106.978 30.312 108.034 31.24C109.09 32.136 110.69 32.584 112.834 32.584C114.562 32.584 115.938 32.312 116.962 31.768C118.018 31.192 118.546 30.28 118.546 29.032C118.546 28.36 118.386 27.8 118.066 27.352C117.746 26.904 117.122 26.52 116.194 26.2C115.266 25.848 113.89 25.512 112.066 25.192C109.634 24.744 107.714 24.2 106.306 23.56C104.93 22.888 103.938 22.072 103.33 21.112C102.754 20.12 102.466 18.952 102.466 17.608C102.466 15.336 103.298 13.48 104.962 12.04C106.626 10.568 108.994 9.832 112.066 9.832C114.146 9.832 115.89 10.216 117.298 10.984C118.738 11.72 119.858 12.712 120.658 13.96C121.49 15.176 122.034 16.52 122.29 17.992L118.066 18.28C117.874 17.384 117.522 16.6 117.01 15.928C116.498 15.224 115.826 14.68 114.994 14.296C114.162 13.88 113.17 13.672 112.018 13.672C110.194 13.672 108.85 14.024 107.986 14.728C107.122 15.432 106.69 16.328 106.69 17.416C106.69 18.248 106.882 18.936 107.266 19.48C107.682 19.992 108.338 20.424 109.234 20.776C110.13 21.096 111.33 21.384 112.834 21.64C115.426 22.088 117.442 22.632 118.882 23.272C120.322 23.912 121.33 24.696 121.906 25.624C122.482 26.552 122.77 27.688 122.77 29.032C122.77 30.6 122.322 31.944 121.426 33.064C120.562 34.152 119.378 34.984 117.874 35.56C116.402 36.136 114.722 36.424 112.834 36.424Z"/>
<path d="M89.9485 36.424C87.5485 36.424 85.4685 35.88 83.7085 34.792C81.9805 33.704 80.6365 32.168 79.6765 30.184C78.7485 28.168 78.2845 25.816 78.2845 23.128C78.2845 20.44 78.7485 18.104 79.6765 16.12C80.6365 14.136 81.9646 12.6 83.6606 11.512C85.3885 10.392 87.4205 9.832 89.7565 9.832C91.9645 9.832 93.9165 10.36 95.6125 11.416C97.3085 12.44 98.6206 13.944 99.5486 15.928C100.509 17.912 100.989 20.328 100.989 23.176V24.376H82.5085C82.6685 27.096 83.3885 29.144 84.6685 30.52C85.9805 31.896 87.7405 32.584 89.9485 32.584C91.6125 32.584 92.9725 32.2 94.0285 31.432C95.1165 30.632 95.8685 29.592 96.2845 28.312L100.605 28.648C99.9326 30.92 98.6525 32.792 96.7645 34.264C94.9085 35.704 92.6366 36.424 89.9485 36.424ZM82.5085 20.824H96.5725C96.3805 18.36 95.6606 16.552 94.4126 15.4C93.1965 14.248 91.6445 13.672 89.7565 13.672C87.8046 13.672 86.1886 14.28 84.9086 15.496C83.6606 16.68 82.8605 18.456 82.5085 20.824Z"/>
<path d="M55.5644 35.848V10.408H59.2604L59.4044 16.888L58.9244 16.456C59.2444 14.952 59.8044 13.72 60.6044 12.76C61.4044 11.768 62.3644 11.032 63.4844 10.552C64.6364 10.072 65.8684 9.832 67.1804 9.832C69.1324 9.832 70.7324 10.264 71.9804 11.128C73.2604 11.992 74.2044 13.16 74.8124 14.632C75.4524 16.072 75.7724 17.688 75.7724 19.48V35.848H71.7404V20.632C71.7404 19.064 71.5484 17.752 71.1644 16.696C70.8124 15.608 70.2364 14.792 69.4364 14.248C68.6364 13.672 67.5964 13.384 66.3164 13.384C64.3644 13.384 62.7484 14.008 61.4684 15.256C60.2204 16.472 59.5964 18.264 59.5964 20.632V35.848H55.5644Z"/>
<path d="M41.3336 36.424C38.9976 36.424 36.9496 35.88 35.1896 34.792C33.4296 33.704 32.0696 32.168 31.1096 30.184C30.1496 28.168 29.6696 25.816 29.6696 23.128C29.6696 20.408 30.1496 18.056 31.1096 16.072C32.0696 14.088 33.4296 12.552 35.1896 11.464C36.9496 10.376 38.9976 9.832 41.3336 9.832C43.6696 9.832 45.7016 10.376 47.4296 11.464C49.1896 12.552 50.5496 14.088 51.5096 16.072C52.4696 18.056 52.9496 20.408 52.9496 23.128C52.9496 25.816 52.4696 28.168 51.5096 30.184C50.5496 32.168 49.1896 33.704 47.4296 34.792C45.7016 35.88 43.6696 36.424 41.3336 36.424ZM41.3336 32.584C43.6696 32.584 45.4776 31.752 46.7576 30.088C48.0696 28.392 48.7256 26.072 48.7256 23.128C48.7256 20.184 48.0696 17.88 46.7576 16.216C45.4776 14.52 43.6696 13.672 41.3336 13.672C38.9976 13.672 37.1736 14.52 35.8616 16.216C34.5496 17.88 33.8936 20.184 33.8936 23.128C33.8936 26.072 34.5496 28.392 35.8616 30.088C37.1736 31.752 38.9976 32.584 41.3336 32.584Z"/>
<path d="M15.8609 36.616C13.7489 36.616 11.8769 36.12 10.2449 35.128C8.61293 34.104 7.33294 32.696 6.40494 30.904C5.50894 29.112 5.04494 27.048 5.01294 24.712L9.23694 24.424C9.26894 27.048 9.86094 29.064 11.0129 30.472C12.1649 31.88 13.7809 32.584 15.8609 32.584C18.0369 32.584 19.7009 31.832 20.8529 30.328C22.0369 28.824 22.6289 26.696 22.6289 23.944V1.768H26.7569V23.944C26.7569 26.536 26.3089 28.792 25.4129 30.712C24.5169 32.6 23.2529 34.056 21.6209 35.08C20.0209 36.104 18.1009 36.616 15.8609 36.616Z"/>
</mask>
<path d="M406.82 35.848C405.348 35.848 404.148 35.464 403.22 34.696C402.292 33.928 401.828 32.712 401.828 31.048V1.768H405.86V30.712C405.86 31.224 405.988 31.624 406.244 31.912C406.532 32.168 406.932 32.296 407.444 32.296H409.652V35.848H406.82Z" fill="black"/>
<path d="M385.603 36.424C382.979 36.424 380.883 35.816 379.315 34.6C377.779 33.384 377.011 31.688 377.011 29.512C377.011 27.336 377.651 25.624 378.931 24.376C380.211 23.128 382.243 22.248 385.027 21.736L394.051 20.056C394.051 17.912 393.539 16.312 392.515 15.256C391.523 14.2 390.019 13.672 388.003 13.672C386.243 13.672 384.851 14.072 383.827 14.872C382.803 15.64 382.099 16.76 381.715 18.232L377.443 17.896C377.923 15.496 379.075 13.56 380.899 12.088C382.755 10.584 385.123 9.832 388.003 9.832C391.267 9.832 393.763 10.76 395.491 12.616C397.219 14.44 398.083 16.968 398.083 20.2V30.712C398.083 31.288 398.179 31.704 398.371 31.96C398.595 32.184 398.947 32.296 399.427 32.296H400.435V35.848C400.307 35.88 400.099 35.896 399.811 35.896C399.523 35.928 399.219 35.944 398.899 35.944C397.747 35.944 396.803 35.768 396.067 35.416C395.363 35.032 394.851 34.456 394.531 33.688C394.211 32.888 394.051 31.848 394.051 30.568L394.531 30.664C394.307 31.752 393.763 32.744 392.899 33.64C392.035 34.504 390.963 35.192 389.683 35.704C388.403 36.184 387.043 36.424 385.603 36.424ZM385.987 32.872C387.683 32.872 389.123 32.552 390.307 31.912C391.523 31.24 392.451 30.344 393.091 29.224C393.731 28.072 394.051 26.792 394.051 25.384V23.56L385.795 25.096C384.067 25.416 382.867 25.912 382.195 26.584C381.555 27.224 381.235 28.072 381.235 29.128C381.235 30.312 381.651 31.24 382.483 31.912C383.347 32.552 384.515 32.872 385.987 32.872Z" fill="black"/>
<path d="M362.767 43.624C360.943 43.624 359.295 43.32 357.823 42.712C356.351 42.104 355.119 41.24 354.127 40.12C353.135 39 352.463 37.704 352.111 36.232L356.335 35.944C356.719 37.128 357.391 38.056 358.351 38.728C359.343 39.432 360.815 39.784 362.767 39.784C365.071 39.784 366.831 39.32 368.047 38.392C369.295 37.464 369.919 36.072 369.919 34.216V30.088C369.311 31.432 368.335 32.504 366.991 33.304C365.647 34.104 364.143 34.504 362.479 34.504C360.335 34.504 358.415 33.976 356.719 32.92C355.055 31.864 353.743 30.408 352.783 28.552C351.855 26.696 351.391 24.568 351.391 22.168C351.391 19.736 351.855 17.608 352.783 15.784C353.711 13.928 354.991 12.472 356.623 11.416C358.287 10.36 360.175 9.832 362.287 9.832C364.079 9.832 365.679 10.248 367.087 11.08C368.527 11.912 369.535 13.032 370.111 14.44V10.408H373.951V34.12C373.951 36.104 373.503 37.8 372.607 39.208C371.711 40.648 370.431 41.736 368.767 42.472C367.103 43.24 365.103 43.624 362.767 43.624ZM362.671 30.664C364.847 30.664 366.591 29.912 367.903 28.408C369.215 26.872 369.887 24.792 369.919 22.168C369.951 20.408 369.663 18.904 369.055 17.656C368.479 16.376 367.631 15.4 366.511 14.728C365.423 14.024 364.143 13.672 362.671 13.672C360.431 13.672 358.687 14.44 357.439 15.976C356.223 17.48 355.615 19.544 355.615 22.168C355.615 24.792 356.239 26.872 357.487 28.408C358.767 29.912 360.495 30.664 362.671 30.664Z" fill="black"/>
<path d="M339.498 36.424C337.098 36.424 335.018 35.88 333.258 34.792C331.53 33.704 330.186 32.168 329.226 30.184C328.298 28.168 327.834 25.816 327.834 23.128C327.834 20.44 328.298 18.104 329.226 16.12C330.186 14.136 331.514 12.6 333.21 11.512C334.938 10.392 336.97 9.832 339.306 9.832C341.514 9.832 343.466 10.36 345.162 11.416C346.858 12.44 348.17 13.944 349.098 15.928C350.058 17.912 350.538 20.328 350.538 23.176V24.376H332.058C332.218 27.096 332.938 29.144 334.218 30.52C335.53 31.896 337.29 32.584 339.498 32.584C341.162 32.584 342.522 32.2 343.578 31.432C344.666 30.632 345.418 29.592 345.834 28.312L350.154 28.648C349.482 30.92 348.202 32.792 346.314 34.264C344.458 35.704 342.186 36.424 339.498 36.424ZM332.058 20.824H346.122C345.93 18.36 345.21 16.552 343.962 15.4C342.746 14.248 341.194 13.672 339.306 13.672C337.354 13.672 335.738 14.28 334.458 15.496C333.21 16.68 332.41 18.456 332.058 20.824Z" fill="black"/>
<path d="M307.049 35.848V1.768H311.177V33.928L309.113 31.816H328.217V35.848H307.049Z" fill="black"/>
<path d="M272.343 35.848V10.408H276.039L276.183 16.888L275.703 16.456C276.023 14.952 276.583 13.72 277.383 12.76C278.183 11.768 279.143 11.032 280.263 10.552C281.415 10.072 282.647 9.832 283.959 9.832C285.911 9.832 287.511 10.264 288.759 11.128C290.039 11.992 290.983 13.16 291.591 14.632C292.231 16.072 292.551 17.688 292.551 19.48V35.848H288.519V20.632C288.519 19.064 288.327 17.752 287.943 16.696C287.591 15.608 287.015 14.792 286.215 14.248C285.415 13.672 284.375 13.384 283.095 13.384C281.143 13.384 279.527 14.008 278.247 15.256C276.999 16.472 276.375 18.264 276.375 20.632V35.848H272.343Z" fill="black"/>
<path d="M242.154 35.848L234.282 10.408H238.698L244.65 31.624L250.698 10.408H255.018L261.066 31.624L267.066 10.408H271.482L263.61 35.848H258.522L252.858 16.504L247.194 35.848H242.154Z" fill="black"/>
<path d="M223.585 36.424C221.249 36.424 219.201 35.88 217.441 34.792C215.681 33.704 214.321 32.168 213.361 30.184C212.401 28.168 211.921 25.816 211.921 23.128C211.921 20.408 212.401 18.056 213.361 16.072C214.321 14.088 215.681 12.552 217.441 11.464C219.201 10.376 221.249 9.832 223.585 9.832C225.921 9.832 227.953 10.376 229.681 11.464C231.441 12.552 232.801 14.088 233.761 16.072C234.721 18.056 235.201 20.408 235.201 23.128C235.201 25.816 234.721 28.168 233.761 30.184C232.801 32.168 231.441 33.704 229.681 34.792C227.953 35.88 225.921 36.424 223.585 36.424ZM223.585 32.584C225.921 32.584 227.729 31.752 229.009 30.088C230.321 28.392 230.977 26.072 230.977 23.128C230.977 20.184 230.321 17.88 229.009 16.216C227.729 14.52 225.921 13.672 223.585 13.672C221.249 13.672 219.425 14.52 218.113 16.216C216.801 17.88 216.145 20.184 216.145 23.128C216.145 26.072 216.801 28.392 218.113 30.088C219.425 31.752 221.249 32.584 223.585 32.584Z" fill="black"/>
<path d="M200.264 35.848V10.408H203.816L204.008 16.84L203.624 16.696C203.944 14.52 204.632 12.936 205.688 11.944C206.776 10.92 208.216 10.408 210.008 10.408H212.504V14.248H210.056C208.776 14.248 207.704 14.488 206.84 14.968C206.008 15.416 205.368 16.104 204.92 17.032C204.504 17.928 204.296 19.08 204.296 20.488V35.848H200.264Z" fill="black"/>
<path d="M171.564 35.848V1.768H183.276C187.308 1.768 190.332 2.504 192.348 3.976C194.364 5.448 195.372 7.768 195.372 10.936C195.372 12.408 195.052 13.704 194.412 14.824C193.772 15.944 192.86 16.824 191.676 17.464C190.492 18.072 189.084 18.376 187.452 18.376L187.404 18.088C190.316 18.088 192.604 18.872 194.268 20.44C195.964 21.976 196.812 23.992 196.812 26.488C196.812 29.592 195.804 31.928 193.788 33.496C191.772 35.064 188.908 35.848 185.196 35.848H171.564ZM175.692 31.816H185.196C187.532 31.816 189.324 31.336 190.572 30.376C191.852 29.416 192.492 28.04 192.492 26.248C192.492 24.456 191.852 23.064 190.572 22.072C189.324 21.048 187.532 20.536 185.196 20.536H175.692V31.816ZM175.692 16.504H183.276C185.772 16.504 187.692 16.04 189.036 15.112C190.38 14.152 191.052 12.824 191.052 11.128C191.052 9.336 190.396 8.008 189.084 7.144C187.804 6.248 185.868 5.8 183.276 5.8H175.692V16.504Z" fill="black"/>
<path d="M143.622 36.616C140.358 36.616 137.782 35.832 135.894 34.264C134.006 32.664 133.062 30.408 133.062 27.496C133.062 26.024 133.27 24.728 133.686 23.608C134.102 22.456 134.79 21.352 135.75 20.296C136.742 19.24 138.086 18.12 139.782 16.936C139.046 15.976 138.422 15.08 137.91 14.248C137.398 13.384 136.998 12.52 136.71 11.656C136.454 10.792 136.326 9.864 136.326 8.872C136.326 6.408 137.062 4.488 138.534 3.112C140.038 1.704 142.086 1 144.678 1C146.374 1 147.814 1.304 148.998 1.912C150.182 2.488 151.078 3.32 151.686 4.408C152.326 5.496 152.646 6.792 152.646 8.296C152.646 10.12 152.102 11.768 151.014 13.24C149.926 14.68 148.102 16.248 145.542 17.944L153.318 27.88C154.47 26.28 155.046 23.848 155.046 20.584L159.078 20.968C159.046 22.888 158.726 24.744 158.118 26.536C157.542 28.328 156.79 29.784 155.862 30.904L159.942 35.848H155.094L153.318 33.688C152.39 34.584 151.11 35.304 149.478 35.848C147.878 36.36 145.926 36.616 143.622 36.616ZM144.102 32.776C145.734 32.776 147.094 32.584 148.182 32.2C149.27 31.816 150.086 31.336 150.63 30.76L142.182 20.104C140.454 21.288 139.222 22.44 138.486 23.56C137.75 24.68 137.382 25.992 137.382 27.496C137.382 29.096 137.91 30.376 138.966 31.336C140.054 32.296 141.766 32.776 144.102 32.776ZM143.334 15.016C144.55 14.248 145.526 13.544 146.262 12.904C146.998 12.232 147.526 11.544 147.846 10.84C148.166 10.136 148.326 9.384 148.326 8.584C148.326 7.432 148.006 6.552 147.366 5.944C146.726 5.336 145.83 5.032 144.678 5.032C143.398 5.032 142.406 5.368 141.702 6.04C140.998 6.712 140.646 7.656 140.646 8.872C140.646 9.512 140.726 10.152 140.886 10.792C141.046 11.4 141.318 12.04 141.702 12.712C142.118 13.384 142.662 14.152 143.334 15.016Z" fill="black"/>
<path d="M112.834 36.424C110.562 36.424 108.626 36.056 107.026 35.32C105.458 34.584 104.226 33.576 103.33 32.296C102.466 30.984 101.97 29.496 101.842 27.832L106.066 27.544C106.322 29.08 106.978 30.312 108.034 31.24C109.09 32.136 110.69 32.584 112.834 32.584C114.562 32.584 115.938 32.312 116.962 31.768C118.018 31.192 118.546 30.28 118.546 29.032C118.546 28.36 118.386 27.8 118.066 27.352C117.746 26.904 117.122 26.52 116.194 26.2C115.266 25.848 113.89 25.512 112.066 25.192C109.634 24.744 107.714 24.2 106.306 23.56C104.93 22.888 103.938 22.072 103.33 21.112C102.754 20.12 102.466 18.952 102.466 17.608C102.466 15.336 103.298 13.48 104.962 12.04C106.626 10.568 108.994 9.832 112.066 9.832C114.146 9.832 115.89 10.216 117.298 10.984C118.738 11.72 119.858 12.712 120.658 13.96C121.49 15.176 122.034 16.52 122.29 17.992L118.066 18.28C117.874 17.384 117.522 16.6 117.01 15.928C116.498 15.224 115.826 14.68 114.994 14.296C114.162 13.88 113.17 13.672 112.018 13.672C110.194 13.672 108.85 14.024 107.986 14.728C107.122 15.432 106.69 16.328 106.69 17.416C106.69 18.248 106.882 18.936 107.266 19.48C107.682 19.992 108.338 20.424 109.234 20.776C110.13 21.096 111.33 21.384 112.834 21.64C115.426 22.088 117.442 22.632 118.882 23.272C120.322 23.912 121.33 24.696 121.906 25.624C122.482 26.552 122.77 27.688 122.77 29.032C122.77 30.6 122.322 31.944 121.426 33.064C120.562 34.152 119.378 34.984 117.874 35.56C116.402 36.136 114.722 36.424 112.834 36.424Z" fill="black"/>
<path d="M89.9485 36.424C87.5485 36.424 85.4685 35.88 83.7085 34.792C81.9805 33.704 80.6365 32.168 79.6765 30.184C78.7485 28.168 78.2845 25.816 78.2845 23.128C78.2845 20.44 78.7485 18.104 79.6765 16.12C80.6365 14.136 81.9646 12.6 83.6606 11.512C85.3885 10.392 87.4205 9.832 89.7565 9.832C91.9645 9.832 93.9165 10.36 95.6125 11.416C97.3085 12.44 98.6206 13.944 99.5486 15.928C100.509 17.912 100.989 20.328 100.989 23.176V24.376H82.5085C82.6685 27.096 83.3885 29.144 84.6685 30.52C85.9805 31.896 87.7405 32.584 89.9485 32.584C91.6125 32.584 92.9725 32.2 94.0285 31.432C95.1165 30.632 95.8685 29.592 96.2845 28.312L100.605 28.648C99.9326 30.92 98.6525 32.792 96.7645 34.264C94.9085 35.704 92.6366 36.424 89.9485 36.424ZM82.5085 20.824H96.5725C96.3805 18.36 95.6606 16.552 94.4126 15.4C93.1965 14.248 91.6445 13.672 89.7565 13.672C87.8046 13.672 86.1886 14.28 84.9086 15.496C83.6606 16.68 82.8605 18.456 82.5085 20.824Z" fill="black"/>
<path d="M55.5644 35.848V10.408H59.2604L59.4044 16.888L58.9244 16.456C59.2444 14.952 59.8044 13.72 60.6044 12.76C61.4044 11.768 62.3644 11.032 63.4844 10.552C64.6364 10.072 65.8684 9.832 67.1804 9.832C69.1324 9.832 70.7324 10.264 71.9804 11.128C73.2604 11.992 74.2044 13.16 74.8124 14.632C75.4524 16.072 75.7724 17.688 75.7724 19.48V35.848H71.7404V20.632C71.7404 19.064 71.5484 17.752 71.1644 16.696C70.8124 15.608 70.2364 14.792 69.4364 14.248C68.6364 13.672 67.5964 13.384 66.3164 13.384C64.3644 13.384 62.7484 14.008 61.4684 15.256C60.2204 16.472 59.5964 18.264 59.5964 20.632V35.848H55.5644Z" fill="black"/>
<path d="M41.3336 36.424C38.9976 36.424 36.9496 35.88 35.1896 34.792C33.4296 33.704 32.0696 32.168 31.1096 30.184C30.1496 28.168 29.6696 25.816 29.6696 23.128C29.6696 20.408 30.1496 18.056 31.1096 16.072C32.0696 14.088 33.4296 12.552 35.1896 11.464C36.9496 10.376 38.9976 9.832 41.3336 9.832C43.6696 9.832 45.7016 10.376 47.4296 11.464C49.1896 12.552 50.5496 14.088 51.5096 16.072C52.4696 18.056 52.9496 20.408 52.9496 23.128C52.9496 25.816 52.4696 28.168 51.5096 30.184C50.5496 32.168 49.1896 33.704 47.4296 34.792C45.7016 35.88 43.6696 36.424 41.3336 36.424ZM41.3336 32.584C43.6696 32.584 45.4776 31.752 46.7576 30.088C48.0696 28.392 48.7256 26.072 48.7256 23.128C48.7256 20.184 48.0696 17.88 46.7576 16.216C45.4776 14.52 43.6696 13.672 41.3336 13.672C38.9976 13.672 37.1736 14.52 35.8616 16.216C34.5496 17.88 33.8936 20.184 33.8936 23.128C33.8936 26.072 34.5496 28.392 35.8616 30.088C37.1736 31.752 38.9976 32.584 41.3336 32.584Z" fill="black"/>
<path d="M15.8609 36.616C13.7489 36.616 11.8769 36.12 10.2449 35.128C8.61293 34.104 7.33294 32.696 6.40494 30.904C5.50894 29.112 5.04494 27.048 5.01294 24.712L9.23694 24.424C9.26894 27.048 9.86094 29.064 11.0129 30.472C12.1649 31.88 13.7809 32.584 15.8609 32.584C18.0369 32.584 19.7009 31.832 20.8529 30.328C22.0369 28.824 22.6289 26.696 22.6289 23.944V1.768H26.7569V23.944C26.7569 26.536 26.3089 28.792 25.4129 30.712C24.5169 32.6 23.2529 34.056 21.6209 35.08C20.0209 36.104 18.1009 36.616 15.8609 36.616Z" fill="black"/>
<path d="M406.82 35.848C405.348 35.848 404.148 35.464 403.22 34.696C402.292 33.928 401.828 32.712 401.828 31.048V1.768H405.86V30.712C405.86 31.224 405.988 31.624 406.244 31.912C406.532 32.168 406.932 32.296 407.444 32.296H409.652V35.848H406.82Z" stroke="black" stroke-width="2" mask="url(#path-1-outside-1_37_482)"/>
<path d="M385.603 36.424C382.979 36.424 380.883 35.816 379.315 34.6C377.779 33.384 377.011 31.688 377.011 29.512C377.011 27.336 377.651 25.624 378.931 24.376C380.211 23.128 382.243 22.248 385.027 21.736L394.051 20.056C394.051 17.912 393.539 16.312 392.515 15.256C391.523 14.2 390.019 13.672 388.003 13.672C386.243 13.672 384.851 14.072 383.827 14.872C382.803 15.64 382.099 16.76 381.715 18.232L377.443 17.896C377.923 15.496 379.075 13.56 380.899 12.088C382.755 10.584 385.123 9.832 388.003 9.832C391.267 9.832 393.763 10.76 395.491 12.616C397.219 14.44 398.083 16.968 398.083 20.2V30.712C398.083 31.288 398.179 31.704 398.371 31.96C398.595 32.184 398.947 32.296 399.427 32.296H400.435V35.848C400.307 35.88 400.099 35.896 399.811 35.896C399.523 35.928 399.219 35.944 398.899 35.944C397.747 35.944 396.803 35.768 396.067 35.416C395.363 35.032 394.851 34.456 394.531 33.688C394.211 32.888 394.051 31.848 394.051 30.568L394.531 30.664C394.307 31.752 393.763 32.744 392.899 33.64C392.035 34.504 390.963 35.192 389.683 35.704C388.403 36.184 387.043 36.424 385.603 36.424ZM385.987 32.872C387.683 32.872 389.123 32.552 390.307 31.912C391.523 31.24 392.451 30.344 393.091 29.224C393.731 28.072 394.051 26.792 394.051 25.384V23.56L385.795 25.096C384.067 25.416 382.867 25.912 382.195 26.584C381.555 27.224 381.235 28.072 381.235 29.128C381.235 30.312 381.651 31.24 382.483 31.912C383.347 32.552 384.515 32.872 385.987 32.872Z" stroke="black" stroke-width="2" mask="url(#path-1-outside-1_37_482)"/>
<path d="M362.767 43.624C360.943 43.624 359.295 43.32 357.823 42.712C356.351 42.104 355.119 41.24 354.127 40.12C353.135 39 352.463 37.704 352.111 36.232L356.335 35.944C356.719 37.128 357.391 38.056 358.351 38.728C359.343 39.432 360.815 39.784 362.767 39.784C365.071 39.784 366.831 39.32 368.047 38.392C369.295 37.464 369.919 36.072 369.919 34.216V30.088C369.311 31.432 368.335 32.504 366.991 33.304C365.647 34.104 364.143 34.504 362.479 34.504C360.335 34.504 358.415 33.976 356.719 32.92C355.055 31.864 353.743 30.408 352.783 28.552C351.855 26.696 351.391 24.568 351.391 22.168C351.391 19.736 351.855 17.608 352.783 15.784C353.711 13.928 354.991 12.472 356.623 11.416C358.287 10.36 360.175 9.832 362.287 9.832C364.079 9.832 365.679 10.248 367.087 11.08C368.527 11.912 369.535 13.032 370.111 14.44V10.408H373.951V34.12C373.951 36.104 373.503 37.8 372.607 39.208C371.711 40.648 370.431 41.736 368.767 42.472C367.103 43.24 365.103 43.624 362.767 43.624ZM362.671 30.664C364.847 30.664 366.591 29.912 367.903 28.408C369.215 26.872 369.887 24.792 369.919 22.168C369.951 20.408 369.663 18.904 369.055 17.656C368.479 16.376 367.631 15.4 366.511 14.728C365.423 14.024 364.143 13.672 362.671 13.672C360.431 13.672 358.687 14.44 357.439 15.976C356.223 17.48 355.615 19.544 355.615 22.168C355.615 24.792 356.239 26.872 357.487 28.408C358.767 29.912 360.495 30.664 362.671 30.664Z" stroke="black" stroke-width="2" mask="url(#path-1-outside-1_37_482)"/>
<path d="M339.498 36.424C337.098 36.424 335.018 35.88 333.258 34.792C331.53 33.704 330.186 32.168 329.226 30.184C328.298 28.168 327.834 25.816 327.834 23.128C327.834 20.44 328.298 18.104 329.226 16.12C330.186 14.136 331.514 12.6 333.21 11.512C334.938 10.392 336.97 9.832 339.306 9.832C341.514 9.832 343.466 10.36 345.162 11.416C346.858 12.44 348.17 13.944 349.098 15.928C350.058 17.912 350.538 20.328 350.538 23.176V24.376H332.058C332.218 27.096 332.938 29.144 334.218 30.52C335.53 31.896 337.29 32.584 339.498 32.584C341.162 32.584 342.522 32.2 343.578 31.432C344.666 30.632 345.418 29.592 345.834 28.312L350.154 28.648C349.482 30.92 348.202 32.792 346.314 34.264C344.458 35.704 342.186 36.424 339.498 36.424ZM332.058 20.824H346.122C345.93 18.36 345.21 16.552 343.962 15.4C342.746 14.248 341.194 13.672 339.306 13.672C337.354 13.672 335.738 14.28 334.458 15.496C333.21 16.68 332.41 18.456 332.058 20.824Z" stroke="black" stroke-width="2" mask="url(#path-1-outside-1_37_482)"/>
<path d="M307.049 35.848V1.768H311.177V33.928L309.113 31.816H328.217V35.848H307.049Z" stroke="black" stroke-width="2" mask="url(#path-1-outside-1_37_482)"/>
<path d="M272.343 35.848V10.408H276.039L276.183 16.888L275.703 16.456C276.023 14.952 276.583 13.72 277.383 12.76C278.183 11.768 279.143 11.032 280.263 10.552C281.415 10.072 282.647 9.832 283.959 9.832C285.911 9.832 287.511 10.264 288.759 11.128C290.039 11.992 290.983 13.16 291.591 14.632C292.231 16.072 292.551 17.688 292.551 19.48V35.848H288.519V20.632C288.519 19.064 288.327 17.752 287.943 16.696C287.591 15.608 287.015 14.792 286.215 14.248C285.415 13.672 284.375 13.384 283.095 13.384C281.143 13.384 279.527 14.008 278.247 15.256C276.999 16.472 276.375 18.264 276.375 20.632V35.848H272.343Z" stroke="black" stroke-width="2" mask="url(#path-1-outside-1_37_482)"/>
<path d="M242.154 35.848L234.282 10.408H238.698L244.65 31.624L250.698 10.408H255.018L261.066 31.624L267.066 10.408H271.482L263.61 35.848H258.522L252.858 16.504L247.194 35.848H242.154Z" stroke="black" stroke-width="2" mask="url(#path-1-outside-1_37_482)"/>
<path d="M223.585 36.424C221.249 36.424 219.201 35.88 217.441 34.792C215.681 33.704 214.321 32.168 213.361 30.184C212.401 28.168 211.921 25.816 211.921 23.128C211.921 20.408 212.401 18.056 213.361 16.072C214.321 14.088 215.681 12.552 217.441 11.464C219.201 10.376 221.249 9.832 223.585 9.832C225.921 9.832 227.953 10.376 229.681 11.464C231.441 12.552 232.801 14.088 233.761 16.072C234.721 18.056 235.201 20.408 235.201 23.128C235.201 25.816 234.721 28.168 233.761 30.184C232.801 32.168 231.441 33.704 229.681 34.792C227.953 35.88 225.921 36.424 223.585 36.424ZM223.585 32.584C225.921 32.584 227.729 31.752 229.009 30.088C230.321 28.392 230.977 26.072 230.977 23.128C230.977 20.184 230.321 17.88 229.009 16.216C227.729 14.52 225.921 13.672 223.585 13.672C221.249 13.672 219.425 14.52 218.113 16.216C216.801 17.88 216.145 20.184 216.145 23.128C216.145 26.072 216.801 28.392 218.113 30.088C219.425 31.752 221.249 32.584 223.585 32.584Z" stroke="black" stroke-width="2" mask="url(#path-1-outside-1_37_482)"/>
<path d="M200.264 35.848V10.408H203.816L204.008 16.84L203.624 16.696C203.944 14.52 204.632 12.936 205.688 11.944C206.776 10.92 208.216 10.408 210.008 10.408H212.504V14.248H210.056C208.776 14.248 207.704 14.488 206.84 14.968C206.008 15.416 205.368 16.104 204.92 17.032C204.504 17.928 204.296 19.08 204.296 20.488V35.848H200.264Z" stroke="black" stroke-width="2" mask="url(#path-1-outside-1_37_482)"/>
<path d="M171.564 35.848V1.768H183.276C187.308 1.768 190.332 2.504 192.348 3.976C194.364 5.448 195.372 7.768 195.372 10.936C195.372 12.408 195.052 13.704 194.412 14.824C193.772 15.944 192.86 16.824 191.676 17.464C190.492 18.072 189.084 18.376 187.452 18.376L187.404 18.088C190.316 18.088 192.604 18.872 194.268 20.44C195.964 21.976 196.812 23.992 196.812 26.488C196.812 29.592 195.804 31.928 193.788 33.496C191.772 35.064 188.908 35.848 185.196 35.848H171.564ZM175.692 31.816H185.196C187.532 31.816 189.324 31.336 190.572 30.376C191.852 29.416 192.492 28.04 192.492 26.248C192.492 24.456 191.852 23.064 190.572 22.072C189.324 21.048 187.532 20.536 185.196 20.536H175.692V31.816ZM175.692 16.504H183.276C185.772 16.504 187.692 16.04 189.036 15.112C190.38 14.152 191.052 12.824 191.052 11.128C191.052 9.336 190.396 8.008 189.084 7.144C187.804 6.248 185.868 5.8 183.276 5.8H175.692V16.504Z" stroke="black" stroke-width="2" mask="url(#path-1-outside-1_37_482)"/>
<path d="M143.622 36.616C140.358 36.616 137.782 35.832 135.894 34.264C134.006 32.664 133.062 30.408 133.062 27.496C133.062 26.024 133.27 24.728 133.686 23.608C134.102 22.456 134.79 21.352 135.75 20.296C136.742 19.24 138.086 18.12 139.782 16.936C139.046 15.976 138.422 15.08 137.91 14.248C137.398 13.384 136.998 12.52 136.71 11.656C136.454 10.792 136.326 9.864 136.326 8.872C136.326 6.408 137.062 4.488 138.534 3.112C140.038 1.704 142.086 1 144.678 1C146.374 1 147.814 1.304 148.998 1.912C150.182 2.488 151.078 3.32 151.686 4.408C152.326 5.496 152.646 6.792 152.646 8.296C152.646 10.12 152.102 11.768 151.014 13.24C149.926 14.68 148.102 16.248 145.542 17.944L153.318 27.88C154.47 26.28 155.046 23.848 155.046 20.584L159.078 20.968C159.046 22.888 158.726 24.744 158.118 26.536C157.542 28.328 156.79 29.784 155.862 30.904L159.942 35.848H155.094L153.318 33.688C152.39 34.584 151.11 35.304 149.478 35.848C147.878 36.36 145.926 36.616 143.622 36.616ZM144.102 32.776C145.734 32.776 147.094 32.584 148.182 32.2C149.27 31.816 150.086 31.336 150.63 30.76L142.182 20.104C140.454 21.288 139.222 22.44 138.486 23.56C137.75 24.68 137.382 25.992 137.382 27.496C137.382 29.096 137.91 30.376 138.966 31.336C140.054 32.296 141.766 32.776 144.102 32.776ZM143.334 15.016C144.55 14.248 145.526 13.544 146.262 12.904C146.998 12.232 147.526 11.544 147.846 10.84C148.166 10.136 148.326 9.384 148.326 8.584C148.326 7.432 148.006 6.552 147.366 5.944C146.726 5.336 145.83 5.032 144.678 5.032C143.398 5.032 142.406 5.368 141.702 6.04C140.998 6.712 140.646 7.656 140.646 8.872C140.646 9.512 140.726 10.152 140.886 10.792C141.046 11.4 141.318 12.04 141.702 12.712C142.118 13.384 142.662 14.152 143.334 15.016Z" stroke="black" stroke-width="2" mask="url(#path-1-outside-1_37_482)"/>
<path d="M112.834 36.424C110.562 36.424 108.626 36.056 107.026 35.32C105.458 34.584 104.226 33.576 103.33 32.296C102.466 30.984 101.97 29.496 101.842 27.832L106.066 27.544C106.322 29.08 106.978 30.312 108.034 31.24C109.09 32.136 110.69 32.584 112.834 32.584C114.562 32.584 115.938 32.312 116.962 31.768C118.018 31.192 118.546 30.28 118.546 29.032C118.546 28.36 118.386 27.8 118.066 27.352C117.746 26.904 117.122 26.52 116.194 26.2C115.266 25.848 113.89 25.512 112.066 25.192C109.634 24.744 107.714 24.2 106.306 23.56C104.93 22.888 103.938 22.072 103.33 21.112C102.754 20.12 102.466 18.952 102.466 17.608C102.466 15.336 103.298 13.48 104.962 12.04C106.626 10.568 108.994 9.832 112.066 9.832C114.146 9.832 115.89 10.216 117.298 10.984C118.738 11.72 119.858 12.712 120.658 13.96C121.49 15.176 122.034 16.52 122.29 17.992L118.066 18.28C117.874 17.384 117.522 16.6 117.01 15.928C116.498 15.224 115.826 14.68 114.994 14.296C114.162 13.88 113.17 13.672 112.018 13.672C110.194 13.672 108.85 14.024 107.986 14.728C107.122 15.432 106.69 16.328 106.69 17.416C106.69 18.248 106.882 18.936 107.266 19.48C107.682 19.992 108.338 20.424 109.234 20.776C110.13 21.096 111.33 21.384 112.834 21.64C115.426 22.088 117.442 22.632 118.882 23.272C120.322 23.912 121.33 24.696 121.906 25.624C122.482 26.552 122.77 27.688 122.77 29.032C122.77 30.6 122.322 31.944 121.426 33.064C120.562 34.152 119.378 34.984 117.874 35.56C116.402 36.136 114.722 36.424 112.834 36.424Z" stroke="black" stroke-width="2" mask="url(#path-1-outside-1_37_482)"/>
<path d="M89.9485 36.424C87.5485 36.424 85.4685 35.88 83.7085 34.792C81.9805 33.704 80.6365 32.168 79.6765 30.184C78.7485 28.168 78.2845 25.816 78.2845 23.128C78.2845 20.44 78.7485 18.104 79.6765 16.12C80.6365 14.136 81.9646 12.6 83.6606 11.512C85.3885 10.392 87.4205 9.832 89.7565 9.832C91.9645 9.832 93.9165 10.36 95.6125 11.416C97.3085 12.44 98.6206 13.944 99.5486 15.928C100.509 17.912 100.989 20.328 100.989 23.176V24.376H82.5085C82.6685 27.096 83.3885 29.144 84.6685 30.52C85.9805 31.896 87.7405 32.584 89.9485 32.584C91.6125 32.584 92.9725 32.2 94.0285 31.432C95.1165 30.632 95.8685 29.592 96.2845 28.312L100.605 28.648C99.9326 30.92 98.6525 32.792 96.7645 34.264C94.9085 35.704 92.6366 36.424 89.9485 36.424ZM82.5085 20.824H96.5725C96.3805 18.36 95.6606 16.552 94.4126 15.4C93.1965 14.248 91.6445 13.672 89.7565 13.672C87.8046 13.672 86.1886 14.28 84.9086 15.496C83.6606 16.68 82.8605 18.456 82.5085 20.824Z" stroke="black" stroke-width="2" mask="url(#path-1-outside-1_37_482)"/>
<path d="M55.5644 35.848V10.408H59.2604L59.4044 16.888L58.9244 16.456C59.2444 14.952 59.8044 13.72 60.6044 12.76C61.4044 11.768 62.3644 11.032 63.4844 10.552C64.6364 10.072 65.8684 9.832 67.1804 9.832C69.1324 9.832 70.7324 10.264 71.9804 11.128C73.2604 11.992 74.2044 13.16 74.8124 14.632C75.4524 16.072 75.7724 17.688 75.7724 19.48V35.848H71.7404V20.632C71.7404 19.064 71.5484 17.752 71.1644 16.696C70.8124 15.608 70.2364 14.792 69.4364 14.248C68.6364 13.672 67.5964 13.384 66.3164 13.384C64.3644 13.384 62.7484 14.008 61.4684 15.256C60.2204 16.472 59.5964 18.264 59.5964 20.632V35.848H55.5644Z" stroke="black" stroke-width="2" mask="url(#path-1-outside-1_37_482)"/>
<path d="M41.3336 36.424C38.9976 36.424 36.9496 35.88 35.1896 34.792C33.4296 33.704 32.0696 32.168 31.1096 30.184C30.1496 28.168 29.6696 25.816 29.6696 23.128C29.6696 20.408 30.1496 18.056 31.1096 16.072C32.0696 14.088 33.4296 12.552 35.1896 11.464C36.9496 10.376 38.9976 9.832 41.3336 9.832C43.6696 9.832 45.7016 10.376 47.4296 11.464C49.1896 12.552 50.5496 14.088 51.5096 16.072C52.4696 18.056 52.9496 20.408 52.9496 23.128C52.9496 25.816 52.4696 28.168 51.5096 30.184C50.5496 32.168 49.1896 33.704 47.4296 34.792C45.7016 35.88 43.6696 36.424 41.3336 36.424ZM41.3336 32.584C43.6696 32.584 45.4776 31.752 46.7576 30.088C48.0696 28.392 48.7256 26.072 48.7256 23.128C48.7256 20.184 48.0696 17.88 46.7576 16.216C45.4776 14.52 43.6696 13.672 41.3336 13.672C38.9976 13.672 37.1736 14.52 35.8616 16.216C34.5496 17.88 33.8936 20.184 33.8936 23.128C33.8936 26.072 34.5496 28.392 35.8616 30.088C37.1736 31.752 38.9976 32.584 41.3336 32.584Z" stroke="black" stroke-width="2" mask="url(#path-1-outside-1_37_482)"/>
<path d="M15.8609 36.616C13.7489 36.616 11.8769 36.12 10.2449 35.128C8.61293 34.104 7.33294 32.696 6.40494 30.904C5.50894 29.112 5.04494 27.048 5.01294 24.712L9.23694 24.424C9.26894 27.048 9.86094 29.064 11.0129 30.472C12.1649 31.88 13.7809 32.584 15.8609 32.584C18.0369 32.584 19.7009 31.832 20.8529 30.328C22.0369 28.824 22.6289 26.696 22.6289 23.944V1.768H26.7569V23.944C26.7569 26.536 26.3089 28.792 25.4129 30.712C24.5169 32.6 23.2529 34.056 21.6209 35.08C20.0209 36.104 18.1009 36.616 15.8609 36.616Z" stroke="black" stroke-width="2" mask="url(#path-1-outside-1_37_482)"/>
</g>
<defs>
<filter id="filter0_d_37_482" x="0" y="0" width="414.652" height="52.624" filterUnits="userSpaceOnUse" color-interpolation-filters="sRGB">
<feFlood flood-opacity="0" result="BackgroundImageFix"/>
<feColorMatrix in="SourceAlpha" type="matrix" values="0 0 0 0 0 0 0 0 0 0 0 0 0 0 0 0 0 0 127 0" result="hardAlpha"/>
<feOffset dy="4"/>
<feGaussianBlur stdDeviation="2"/>
<feComposite in2="hardAlpha" operator="out"/>
<feColorMatrix type="matrix" values="0 0 0 0 0 0 0 0 0 0 0 0 0 0 0 0 0 0 0.25 0"/>
<feBlend mode="normal" in2="BackgroundImageFix" result="effect1_dropShadow_37_482"/>
<feBlend mode="normal" in="SourceGraphic" in2="effect1_dropShadow_37_482" result="shape"/>
</filter>
</defs>
</svg>
